<svg xmlns="http://www.w3.org/2000/svg" viewBox="0 0 2386.31 1060.91"><defs><style>.a{fill:#e74c3c;}.b{font-size:147.3px;fill:gray;font-family:Iosevka-Custom-Semibold-Extended, Iosevka Custom;}.c{letter-spacing:-0.03em;}.d{letter-spacing:-0.02em;}.e{letter-spacing:-0.01em;}.f{letter-spacing:-0.04em;}.g{letter-spacing:-0.04em;}.h{letter-spacing:-0.02em;}.i{letter-spacing:-0.01em;}.j{letter-spacing:-0.01em;}.k{font-size:138.97px;}.l{letter-spacing:-0.03em;}.m{letter-spacing:-0.02em;}.n{letter-spacing:-0.02em;}.o{letter-spacing:-0.04em;}.p{letter-spacing:0em;}.q{letter-spacing:-0.01em;}.r{letter-spacing:-0.01em;}.s{letter-spacing:-0.01em;}.t{letter-spacing:-0.03em;}.u{letter-spacing:-0.04em;}.v{letter-spacing:-0.03em;}.w{letter-spacing:-0.02em;}.x{letter-spacing:-0.02em;}.y{letter-spacing:-0.02em;}</style></defs><path d="M319.34,89.57q110-19.62,203.45,28.66,63.36,33.33,110.34,96.06,46,62.47,58.25,131,18,101.06-34.58,192.58-44.44,77.73-130.37,123.52A372.69,372.69,0,0,1,417,699.42a343.12,343.12,0,0,1-147.2-5.56q-88.42-22.67-148.09-89.77Q63.81,539.32,48.16,451.56,30,349.67,73.9,261.44q39-78.52,120.12-126.55Q248.26,102.25,319.34,89.57ZM300.58,219.7q-36,6.41-51.22,42.26-12,26.88-6.11,59.84,8.63,48.39,39.65,108.44t69.78,104a107.65,107.65,0,0,0,38.7,27.55q21.71,9,41.82,5.36,32.54-5.8,48.09-33.76t8.46-67.76q-9.22-51.79-36.62-108.77t-61.48-94.61q-20.94-23.2-45-34.38T300.58,219.7Z" transform="translate(-42.85 -48.55)"/><path d="M1105.05,308.62q65,45.86,90.29,114.2,18.14,49,12.16,102.76-6.54,56.05-37.61,100.13Q1115.52,702.84,1006.7,707q-103.87,3.93-191-57.47-84.94-59.89-103.47-145.31-18.1-83,35-158.35Q806.45,262,906.58,252.77,1011.57,242.72,1105.05,308.62Zm-86.32,62.06q-15.65-11-33.2-6.12t-31.09,24.11q-15,21.32-33,63.75t-27,78.62Q885,568,909.84,585.5q31.63,22.29,59.95-17.86,21.06-29.86,39.87-73.53t24.23-75.5Q1039.2,386.18,1018.73,370.68Z" transform="translate(-42.85 -48.55)"/><path d="M1402.17,282.52q25.68-6.61,33.14-3.82t12,20.49q4,15.58,14.12,13,4.2-1.08,24.1-23.27,15-16.87,40.86-32.29T1575,235.33q53.49-13.76,105.14,12.46,39.27,20,68,58.38a255.09,255.09,0,0,1,42.92,90q27.32,106.14-26.61,193.21-41.41,67.7-111.74,85.79-35.8,9.21-78,2.12-8.45-1.41-13.08-.23-12.63,3.26-6.13,28.53,8.57,33.25,34.68,42.26,24.19,8.6,29.46,12.4t8.17,15.19q6.51,25.26-18.19,46.22t-76.08,34.17q-91.4,23.52-169.46,4.55-39.73-9.54-46.78-36.91-3.24-12.63.34-20.52t16.9-18.94q19.29-15.75,17.31-43.53T1320,586.12q-29.61-102.84-37.49-114.29c-1.85-2.51-3.93-3.93-6.25-4.23s-9.67-.05-22,.74a37.94,37.94,0,0,1-25.1-6.79q-11-7.73-14.55-21.63-4.33-16.85,4.15-32.73t31.88-34.92Q1341.73,299,1402.17,282.52ZM1484.84,431l23.49,117.45c.94,4.85,2,9.51,3.15,14q3.36,13.07,16.79,18.13t32.39.2q58.11-15,33.51-110.56-15.93-61.9-46.86-80.89-19.18-11.67-40.24-6.26Q1477.18,390.75,1484.84,431Z" transform="translate(-42.85 -48.55)"/><path d="M1997.12,257.31q21.66,2,69.72,16a100.89,100.89,0,0,0,16.3,3.24q7.37.68,29.3-5.18,10.3-3,17.24-2.36,19.92,1.83,37.94,29.24a189.76,189.76,0,0,1,22.77,47.06q8.18,25.21,6.56,43-1.59,17.33-14.76,27.69t-31.37,8.7a50.51,50.51,0,0,1-26.39-9.84q-11.25-8.44-35.36-36-25.26-29.38-43.45-31.05A30.46,30.46,0,0,0,2013,374.92q-2,21.22,37.06,43.57,70.17,39.6,105.59,82.14,29.9,35.93,25.55,83.56-5.51,60.21-62,95.65-48.69,30.92-114.51,24.9-16.89-1.54-61-11.26-41.58-8.61-46.77-9.08a77.21,77.21,0,0,0-13.11.11,149.8,149.8,0,0,1-18.35.07q-20.35-1.86-31.1-13.32-16.29-17.64-28.29-53.46t-9.76-60.5q3.65-39.84,34.83-37a35.45,35.45,0,0,1,21.57,10.06q9.43,8.94,38.76,46.55,16,20.69,27,28.9a47.58,47.58,0,0,0,24.46,9.44q14.29,1.31,23.65-5.48t10.5-19.34q1.78-19.5-30.1-38.57-66.6-40.58-94.23-79.8t-23.28-86.84q4.71-51.54,39.73-85.89Q1919.17,250.18,1997.12,257.31Z" transform="translate(-42.85 -48.55)"/><path d="M2282.79,48.88q42.6-3.27,74.63,25.08,42.81,37.16,48.47,110.86,3.75,48.83-8.92,106.37t-37.53,103.74q-28.24,52.24-47.87,53.75-19.14,1.47-59-59.51A473.67,473.67,0,0,1,2204,291.81q-19.2-52.44-22.61-97-4.2-54.57,17.38-93.29Q2225.36,53.29,2282.79,48.88ZM2319.92,501q41.64-3.19,73.71,25.64,32,28.35,35.19,69.51,3.27,42.6-25,75.82T2333,708.46q-41.64,3.19-73.48-22.77-34.42-28.16-37.88-73.15-3.2-41.64,22.83-72.53Q2273.5,504.57,2319.92,501Z" transform="translate(-42.85 -48.55)"/><path class="a" d="M319.34,89.57q110-19.62,203.45,28.66,63.36,33.33,110.34,96.06,46,62.47,58.25,131,18,101.06-34.58,192.58-44.44,77.73-130.37,123.52A372.69,372.69,0,0,1,417,699.42a343.12,343.12,0,0,1-147.2-5.56q-88.42-22.67-148.09-89.77Q63.81,539.32,48.16,451.56,30,349.67,73.9,261.44q39-78.52,120.12-126.55Q248.26,102.25,319.34,89.57ZM300.58,219.7q-36,6.41-51.22,42.26-12,26.88-6.11,59.84,8.63,48.39,39.65,108.44t69.78,104a107.65,107.65,0,0,0,38.7,27.55q21.71,9,41.82,5.36,32.54-5.8,48.09-33.76t8.46-67.76q-9.22-51.79-36.62-108.77t-61.48-94.61q-20.94-23.2-45-34.38T300.58,219.7Z" transform="translate(-42.85 -48.55)"/><path class="a" d="M1105.05,308.62q65,45.86,90.29,114.2,18.14,49,12.16,102.76-6.54,56.05-37.61,100.13Q1115.52,702.84,1006.7,707q-103.87,3.93-191-57.47-84.94-59.89-103.47-145.31-18.1-83,35-158.35Q806.45,262,906.58,252.77,1011.57,242.72,1105.05,308.62Zm-86.32,62.06q-15.65-11-33.2-6.12t-31.09,24.11q-15,21.32-33,63.75t-27,78.62Q885,568,909.84,585.5q31.63,22.29,59.95-17.86,21.06-29.86,39.87-73.53t24.23-75.5Q1039.2,386.18,1018.73,370.68Z" transform="translate(-42.85 -48.55)"/><path class="a" d="M1402.17,282.52q25.68-6.61,33.14-3.82t12,20.49q4,15.58,14.12,13,4.2-1.08,24.1-23.27,15-16.87,40.86-32.29T1575,235.33q53.49-13.76,105.14,12.46,39.27,20,68,58.38a255.09,255.09,0,0,1,42.92,90q27.32,106.14-26.61,193.21-41.41,67.7-111.74,85.79-35.8,9.21-78,2.12-8.45-1.41-13.08-.23-12.63,3.26-6.13,28.53,8.57,33.25,34.68,42.26,24.19,8.6,29.46,12.4t8.17,15.19q6.51,25.26-18.19,46.22t-76.08,34.17q-91.4,23.52-169.46,4.55-39.73-9.54-46.78-36.91-3.24-12.63.34-20.52t16.9-18.94q19.29-15.75,17.31-43.53T1320,586.12q-29.61-102.84-37.49-114.29c-1.85-2.51-3.93-3.93-6.25-4.23s-9.67-.05-22,.74a37.94,37.94,0,0,1-25.1-6.79q-11-7.73-14.55-21.63-4.33-16.85,4.15-32.73t31.88-34.92Q1341.73,299,1402.17,282.52ZM1484.84,431l23.49,117.45c.94,4.85,2,9.51,3.15,14q3.36,13.07,16.79,18.13t32.39.2q58.11-15,33.51-110.56-15.93-61.9-46.86-80.89-19.18-11.67-40.24-6.26Q1477.18,390.75,1484.84,431Z" transform="translate(-42.85 -48.55)"/><path class="a" d="M1997.12,257.31q21.66,2,69.72,16a100.89,100.89,0,0,0,16.3,3.24q7.37.68,29.3-5.18,10.3-3,17.24-2.36,19.92,1.83,37.94,29.24a189.76,189.76,0,0,1,22.77,47.06q8.18,25.21,6.56,43-1.59,17.33-14.76,27.69t-31.37,8.7a50.51,50.51,0,0,1-26.39-9.84q-11.25-8.44-35.36-36-25.26-29.38-43.45-31.05A30.46,30.46,0,0,0,2013,374.92q-2,21.22,37.06,43.57,70.17,39.6,105.59,82.14,29.9,35.93,25.55,83.56-5.51,60.21-62,95.65-48.69,30.92-114.51,24.9-16.89-1.54-61-11.26-41.58-8.61-46.77-9.08a77.21,77.21,0,0,0-13.11.11,149.8,149.8,0,0,1-18.35.07q-20.35-1.86-31.1-13.32-16.29-17.64-28.29-53.46t-9.76-60.5q3.65-39.84,34.83-37a35.45,35.45,0,0,1,21.57,10.06q9.43,8.94,38.76,46.55,16,20.69,27,28.9a47.58,47.58,0,0,0,24.46,9.44q14.29,1.31,23.65-5.48t10.5-19.34q1.78-19.5-30.1-38.57-66.6-40.58-94.23-79.8t-23.28-86.84q4.71-51.54,39.73-85.89Q1919.17,250.18,1997.12,257.31Z" transform="translate(-42.85 -48.55)"/><path class="a" d="M2282.79,48.88q42.6-3.27,74.63,25.08,42.81,37.16,48.47,110.86,3.75,48.83-8.92,106.37t-37.53,103.74q-28.24,52.24-47.87,53.75-19.14,1.47-59-59.51A473.67,473.67,0,0,1,2204,291.81q-19.2-52.44-22.61-97-4.2-54.57,17.38-93.29Q2225.36,53.29,2282.79,48.88ZM2319.92,501q41.64-3.19,73.71,25.64,32,28.35,35.19,69.51,3.27,42.6-25,75.82T2333,708.46q-41.64,3.19-73.48-22.77-34.42-28.16-37.88-73.15-3.2-41.64,22.83-72.53Q2273.5,504.57,2319.92,501Z" transform="translate(-42.85 -48.55)"/><text class="b" transform="translate(48.19 823.41)"><tspan class="c">P</tspan><tspan class="d" x="80.54" y="0">a</tspan><tspan class="e" x="162.42" y="0">g</tspan><tspan x="245.71" y="0">e </tspan><tspan class="e" x="415.41" y="0">n</tspan><tspan class="f" x="498.71" y="0">o</tspan><tspan x="578.12" y="0">t </tspan><tspan class="g" x="747.81" y="0">f</tspan><tspan class="h" x="826.33" y="0">o</tspan><tspan class="i" x="907.91" y="0">u</tspan><tspan class="j" x="992.02" y="0">n</tspan><tspan x="1075.64" y="0">d</tspan><tspan class="k"><tspan class="l" x="0" y="166.76">P</tspan><tspan class="m" x="75.99" y="166.76">รก</tspan><tspan class="n" x="153.22" y="166.76">g</tspan><tspan class="o" x="230.06" y="166.76">i</tspan><tspan class="p" x="304.53" y="166.76">n</tspan><tspan x="384.26" y="166.76">a </tspan><tspan class="q" x="544.35" y="166.76">n</tspan><tspan x="622.93" y="166.76">o </tspan><tspan class="r" x="783.02" y="166.76">e</tspan><tspan class="s" x="861.54" y="166.76">n</tspan><tspan class="t" x="940.2" y="166.76">c</tspan><tspan class="r" x="1016.73" y="166.76">o</tspan><tspan class="u" x="1095.25" y="166.76">n</tspan><tspan class="v" x="1169.86" y="166.76">t</tspan><tspan class="w" x="1245.54" y="166.76">r</tspan><tspan class="x" x="1322.98" y="166.76">a</tspan><tspan class="y" x="1400.22" y="166.76">d</tspan><tspan x="1477.05" y="166.76">a</tspan></tspan></text></svg>